<?xml version="1.0" encoding="utf-8"?>
<!-- Generator: Adobe Illustrator 18.0.0, SVG Export Plug-In . SVG Version: 6.00 Build 0)  -->
<!DOCTYPE svg PUBLIC "-//W3C//DTD SVG 1.1//EN" "http://www.w3.org/Graphics/SVG/1.1/DTD/svg11.dtd">
<svg version="1.1" id="Layer_2" xmlns="http://www.w3.org/2000/svg" xmlns:xlink="http://www.w3.org/1999/xlink" x="0px" y="0px"
	 width="87.2px" height="16px" viewBox="0 0 87.2 16" style="enable-background:new 0 0 87.2 16;" xml:space="preserve">
<style type="text/css">
	.st0{fill:#FFFFFF;}
</style>
<g>
	<g>
		<path class="st0" d="M0,15.6h8.7v-1.5H1.5v-6h7.1V6.6H1.5V1.9h7.2V0.4H0V15.6z M21.8,12.1L11.7,0.4h-0.3v15.2h1.6V4.1L23,15.6h0.3
			V0.4h-1.5V12.1z M31.2,2.4c1-0.6,2.2-0.9,3.4-0.9c1.1,0,2.1,0.2,3.1,0.7c0.9,0.4,1.7,1.1,2.4,2l1.2-0.9c-0.7-1-1.7-1.8-2.8-2.4
			C37.3,0.3,36,0,34.6,0c-2.4,0-4.3,0.8-5.9,2.3c-1.6,1.5-2.3,3.4-2.3,5.6c0,2.1,0.6,3.9,1.9,5.4c1.5,1.8,3.6,2.7,6.3,2.7
			c1.4,0,2.7-0.3,3.8-0.8c1.1-0.5,2.1-1.3,2.8-2.2L40,12.1c-1.4,1.7-3.2,2.5-5.4,2.5c-1.9,0-3.5-0.6-4.8-1.9C28.6,11.5,28,9.9,28,8
			c0-1.2,0.3-2.3,0.9-3.3C29.4,3.7,30.2,3,31.2,2.4z M70.8,0.9c-1-0.4-2.7-0.5-5-0.5h-3.2v15.2h4.8c1.9,0,3.4-0.3,4.4-0.8
			s1.9-1.4,2.6-2.6c0.7-1.2,1-2.5,1-4c0-1.8-0.4-3.3-1.2-4.6C73.5,2.3,72.3,1.4,70.8,0.9z M73,11.8c-0.7,1-1.6,1.6-2.7,2
			c-0.8,0.3-2.3,0.4-4.4,0.4h-1.8V1.9h1.1C67.5,1.9,69,2,70,2.3c1.3,0.4,2.3,1.1,3,2.1S74,6.7,74,8.2C74,9.6,73.7,10.8,73,11.8z
			 M87.2,1.9V0.4h-8.7v15.2h8.7v-1.5H80v-6h7.1V6.6H80V1.9H87.2z M51.5,0c-1.4,0-2.7,0.4-4,1.1c-1.2,0.7-2.2,1.7-2.9,2.9
			c-0.7,1.2-1.1,2.6-1.1,4.1c0,2.2,0.8,4.1,2.3,5.6c1.6,1.5,3.5,2.3,5.7,2.3c2.2,0,4.1-0.8,5.7-2.3c1.6-1.6,2.3-3.4,2.3-5.7
			c0-2.3-0.8-4.1-2.3-5.7C55.8,0.8,53.9,0,51.5,0z M57.3,11.3c-0.6,1-1.3,1.8-2.4,2.4c-1,0.6-2.1,0.9-3.3,0.9
			c-1.8,0-3.3-0.6-4.5-1.9c-1.3-1.2-1.9-2.8-1.9-4.6c0-1.2,0.3-2.3,0.9-3.3c0.6-1,1.4-1.8,2.4-2.4c1-0.6,2.1-0.9,3.2-0.9
			c1.1,0,2.2,0.3,3.3,0.9c1,0.6,1.8,1.4,2.4,2.3c0.6,1,0.8,2.1,0.8,3.3C58.1,9.2,57.8,10.3,57.3,11.3z"/>
	</g>
</g>
</svg>
